<?xml version="1.0" encoding="UTF-8"?>
<svg id="Layer_2" xmlns="http://www.w3.org/2000/svg" viewBox="0 0 368.97 355.23">
  <defs>
    <style>
      .cls-1 {
        fill: #505050;
      }
    </style>
  </defs>
  <g id="Layer_4">
    <path class="cls-1" d="M328.85,29.43h-31.28v22.5c9.79,4.05,16.68,13.7,16.68,24.95,0,14.91-12.09,27-27,27s-27-12.09-27-27c0-11.46,7.14-21.24,17.21-25.16v-22.29h-85.76v20.19c9.75,4.07,16.61,13.7,16.61,24.92,0,14.91-12.09,27-27,27s-27-12.09-27-27c0-11.48,7.17-21.28,17.28-25.19v-19.93h-85.08v21.05c9.86,4.02,16.81,13.7,16.81,25,0,14.91-12.09,27-27,27s-27-12.09-27-27c0-11.41,7.08-21.15,17.08-25.11v-20.94h-26.25C17.96,29.43,0,47.39,0,69.55v245.56c0,22.16,17.96,40.12,40.12,40.12h288.73c22.16,0,40.12-17.96,40.12-40.12V69.55c0-22.16-17.96-40.12-40.12-40.12ZM355.73,316.04c0,14.55-11.79,26.34-26.34,26.34H40.49c-15.47,0-28.01-12.54-28.01-28.01V121.79h343.24v194.26Z"/>
    <circle class="cls-1" cx="149.77" cy="171.06" r="25.71"/>
    <circle class="cls-1" cx="219.48" cy="171.32" r="25.71"/>
    <circle class="cls-1" cx="289.36" cy="170.96" r="25.71"/>
    <circle class="cls-1" cx="79.48" cy="234.15" r="25.71"/>
    <circle class="cls-1" cx="149.58" cy="233.9" r="25.71"/>
    <circle class="cls-1" cx="219.54" cy="234.24" r="25.71"/>
    <circle class="cls-1" cx="289.5" cy="233.86" r="25.71"/>
    <circle class="cls-1" cx="79.74" cy="296.93" r="25.71"/>
    <circle class="cls-1" cx="149.65" cy="297.58" r="25.71"/>
    <circle class="cls-1" cx="219.35" cy="297.75" r="25.71"/>
    <circle class="cls-1" cx="289.65" cy="297.44" r="25.71"/>
    <rect class="cls-1" x="65.35" y=".1" width="22.76" height="86.79" rx="11.38" ry="11.38"/>
    <rect class="cls-1" x="170.5" y="0" width="22.76" height="86.79" rx="11.38" ry="11.38"/>
    <rect class="cls-1" x="276.66" y=".54" width="22.76" height="86.79" rx="11.38" ry="11.38"/>
  </g>
</svg>