<?xml version="1.0" encoding="UTF-8"?>
<svg id="Layer_2" xmlns="http://www.w3.org/2000/svg" viewBox="0 0 134.56 140.84">
  <defs>
    <style>
      .cls-1 {
        fill: #c54242;
      }

      .cls-2 {
        fill: #9a2018;
      }
    </style>
  </defs>
  <g id="Layer_3">
    <g>
      <path class="cls-1" d="M64.99,140.07v.73c.28.15.25-.14,0-.73Z"/>
      <path class="cls-1" d="M53.41,86.45c-3.27-3.27-6.09-7.63-8.33-12.04,13.33-4.6,22.92-17.25,22.92-32.14,0-18.78-15.22-34-34-34S0,23.49,0,42.27c0,9.89,4.22,18.78,10.96,24.99,1.5,2.34,3.38,5.11,5.47,7.9,6.15,8.2,14.05,16.51,15.39,17.93,2.48,2.63,16.03,19.52,18.92,24,1.99,3.09,12.68,19.27,14.26,22.98l.33-44.2s-6.76-4.26-11.92-9.42Z"/>
    </g>
    <path class="cls-2" d="M134.56,34C134.56,15.22,119.34,0,100.56,0s-34,15.22-34,34c0,17.19,12.77,31.4,29.33,33.67-5.13,4.95-15.25,11.42-19.18,15.48-5.22,5.39-11.48,12.74-11.48,12.74l-.25,44.14c-.25.88,10.99-20.23,12.83-24.18,2.3-4.92,15.04-21.09,17.55-23.84,1.35-1.48,9.52-12.15,17.36-19.36,4.8-4.41,11.09-12.92,13.94-16.89,4.92-5.9,7.89-13.49,7.89-21.77Z"/>
  </g>
</svg>